<svg width="1200" height="650" viewBox="0 0 1200 650" fill="none" xmlns="http://www.w3.org/2000/svg">
<rect width="1200" height="650" fill="#FF5A1E"/>
<path d="M240.765 431.546C241.403 431.546 241.882 431.726 242.201 432.085C242.519 432.404 242.799 432.902 243.038 433.579L257.691 471.369C257.731 471.489 257.751 471.628 257.751 471.788C257.751 472.226 257.591 472.605 257.272 472.924C256.953 473.243 256.575 473.402 256.136 473.402H251.83C251.032 473.402 250.474 473.243 250.155 472.924C249.836 472.565 249.617 472.226 249.497 471.907L246.925 465.27H228.026L225.454 471.907C225.334 472.226 225.115 472.565 224.796 472.924C224.477 473.243 223.919 473.402 223.121 473.402H218.815C218.376 473.402 217.998 473.243 217.679 472.924C217.36 472.605 217.2 472.226 217.2 471.788C217.2 471.628 217.22 471.489 217.26 471.369L231.913 433.579C232.153 432.902 232.432 432.404 232.751 432.085C233.07 431.726 233.548 431.546 234.186 431.546H240.765ZM244.055 457.796L237.476 440.755L230.897 457.796H244.055Z" fill="white"/>
<path d="M271.636 473.402C271.197 473.402 270.818 473.243 270.499 472.924C270.18 472.605 270.021 472.226 270.021 471.788V433.161C270.021 432.722 270.18 432.344 270.499 432.025C270.818 431.706 271.197 431.546 271.636 431.546H289.279C291.831 431.546 293.964 431.945 295.679 432.742C297.394 433.5 298.769 434.476 299.806 435.672C300.843 436.828 301.58 438.104 302.019 439.499C302.497 440.854 302.736 442.13 302.736 443.326C302.736 444.522 302.577 445.598 302.258 446.555C301.939 447.472 301.54 448.269 301.062 448.946C300.623 449.584 300.165 450.122 299.686 450.561C299.248 450.999 298.889 451.298 298.61 451.458C299.846 452.295 300.982 453.491 302.019 455.045C303.055 456.56 303.574 458.494 303.574 460.845C303.574 462.36 303.295 463.875 302.736 465.39C302.178 466.865 301.361 468.2 300.284 469.396C299.208 470.592 297.852 471.568 296.217 472.326C294.622 473.043 292.768 473.402 290.655 473.402H271.636ZM294.662 443.625C294.662 442.11 294.184 440.974 293.227 440.217C292.27 439.419 290.755 439.021 288.681 439.021H278.095V448.229H288.681C290.755 448.229 292.27 447.85 293.227 447.093C294.184 446.296 294.662 445.14 294.662 443.625ZM278.095 465.928H289.16C291.353 465.928 292.948 465.469 293.945 464.553C294.981 463.596 295.5 462.36 295.5 460.845C295.5 459.331 294.961 458.095 293.885 457.138C292.848 456.181 291.273 455.703 289.16 455.703H278.095V465.928Z" fill="white"/>
<path d="M336.934 431.546C337.572 431.546 338.051 431.726 338.37 432.085C338.689 432.404 338.968 432.902 339.207 433.579L353.86 471.369C353.9 471.489 353.92 471.628 353.92 471.788C353.92 472.226 353.761 472.605 353.442 472.924C353.123 473.243 352.744 473.402 352.305 473.402H347.999C347.202 473.402 346.643 473.243 346.324 472.924C346.005 472.565 345.786 472.226 345.667 471.907L343.095 465.27H324.195L321.623 471.907C321.504 472.226 321.284 472.565 320.965 472.924C320.646 473.243 320.088 473.402 319.291 473.402H314.984C314.546 473.402 314.167 473.243 313.848 472.924C313.529 472.605 313.369 472.226 313.369 471.788C313.369 471.628 313.389 471.489 313.429 471.369L328.083 433.579C328.322 432.902 328.601 432.404 328.92 432.085C329.239 431.726 329.717 431.546 330.355 431.546H336.934ZM340.224 457.796L333.645 440.755L327.066 457.796H340.224Z" fill="white"/>
<path d="M398.786 431.546C399.225 431.546 399.604 431.706 399.923 432.025C400.242 432.344 400.401 432.722 400.401 433.161V471.788C400.401 472.226 400.242 472.605 399.923 472.924C399.604 473.243 399.225 473.402 398.786 473.402H393.942C393.503 473.402 393.124 473.243 392.805 472.924C392.486 472.605 392.327 472.226 392.327 471.788V456.002H374.264V471.788C374.264 472.226 374.105 472.605 373.786 472.924C373.467 473.243 373.088 473.402 372.649 473.402H367.805C367.366 473.402 366.988 473.263 366.669 472.983C366.35 472.665 366.19 472.266 366.19 471.788V433.161C366.19 432.722 366.35 432.344 366.669 432.025C366.988 431.706 367.366 431.546 367.805 431.546H372.649C373.088 431.546 373.467 431.706 373.786 432.025C374.105 432.344 374.264 432.722 374.264 433.161V448.528H392.327V433.161C392.327 432.722 392.486 432.344 392.805 432.025C393.124 431.706 393.503 431.546 393.942 431.546H398.786Z" fill="white"/>
<path d="M442.3 460.128C442.38 459.61 442.579 459.231 442.898 458.992C443.257 458.713 443.636 458.573 444.034 458.573H448.879C449.318 458.573 449.696 458.733 450.015 459.052C450.374 459.331 450.534 459.709 450.494 460.188C450.374 461.822 449.955 463.456 449.238 465.091C448.56 466.725 447.503 468.2 446.068 469.515C444.632 470.831 442.818 471.907 440.625 472.744C438.432 473.581 435.781 474 432.671 474C429.919 474 427.487 473.601 425.374 472.804C423.261 471.967 421.466 470.831 419.991 469.396C418.516 467.921 417.359 466.167 416.522 464.134C415.725 462.101 415.246 459.889 415.087 457.497C415.007 455.982 414.967 454.308 414.967 452.474C414.967 450.641 415.007 448.966 415.087 447.452C415.246 445.06 415.725 442.847 416.522 440.814C417.359 438.782 418.516 437.047 419.991 435.612C421.466 434.138 423.261 433.001 425.374 432.204C427.487 431.367 429.919 430.949 432.671 430.949C435.781 430.949 438.432 431.367 440.625 432.204C442.818 433.041 444.632 434.118 446.068 435.433C447.503 436.749 448.56 438.243 449.238 439.918C449.955 441.552 450.374 443.166 450.494 444.761C450.534 445.239 450.374 445.638 450.015 445.957C449.696 446.236 449.318 446.375 448.879 446.375H444.034C443.636 446.375 443.257 446.256 442.898 446.017C442.539 445.738 442.32 445.339 442.24 444.821C442.12 444.023 441.841 443.246 441.403 442.489C440.964 441.731 440.366 441.054 439.608 440.456C438.851 439.858 437.894 439.379 436.738 439.021C435.581 438.622 434.226 438.423 432.671 438.423C431.116 438.423 429.76 438.662 428.604 439.14C427.447 439.619 426.47 440.256 425.673 441.054C424.915 441.851 424.317 442.808 423.879 443.924C423.48 445.04 423.241 446.216 423.161 447.452C423.081 448.966 423.041 450.641 423.041 452.474C423.041 454.308 423.081 455.982 423.161 457.497C423.241 458.773 423.48 459.968 423.879 461.085C424.317 462.161 424.915 463.098 425.673 463.895C426.47 464.692 427.447 465.33 428.604 465.808C429.76 466.287 431.116 466.526 432.671 466.526C434.226 466.526 435.581 466.346 436.738 465.988C437.894 465.589 438.851 465.091 439.608 464.493C440.406 463.895 441.024 463.217 441.463 462.46C441.901 461.702 442.18 460.925 442.3 460.128Z" fill="white"/>
<path d="M517.428 431.546C517.867 431.546 518.246 431.706 518.565 432.025C518.884 432.344 519.043 432.722 519.043 433.161V471.788C519.043 472.226 518.884 472.605 518.565 472.924C518.246 473.243 517.867 473.402 517.428 473.402H512.584C512.145 473.402 511.766 473.243 511.447 472.924C511.128 472.605 510.969 472.226 510.969 471.788V456.002H492.907V471.788C492.907 472.226 492.747 472.605 492.428 472.924C492.109 473.243 491.73 473.402 491.292 473.402H486.447C486.009 473.402 485.63 473.263 485.311 472.983C484.992 472.665 484.832 472.266 484.832 471.788V433.161C484.832 432.722 484.992 432.344 485.311 432.025C485.63 431.706 486.009 431.546 486.447 431.546H491.292C491.73 431.546 492.109 431.706 492.428 432.025C492.747 432.344 492.907 432.722 492.907 433.161V448.528H510.969V433.161C510.969 432.722 511.128 432.344 511.447 432.025C511.766 431.706 512.145 431.546 512.584 431.546H517.428Z" fill="white"/>
<path d="M554.842 431.546C555.48 431.546 555.958 431.726 556.277 432.085C556.596 432.404 556.875 432.902 557.114 433.579L571.768 471.369C571.808 471.489 571.827 471.628 571.827 471.788C571.827 472.226 571.668 472.605 571.349 472.924C571.03 473.243 570.651 473.402 570.213 473.402H565.906C565.109 473.402 564.551 473.243 564.232 472.924C563.913 472.565 563.693 472.226 563.574 471.907L561.002 465.27H542.102L539.53 471.907C539.411 472.226 539.191 472.565 538.872 472.924C538.553 473.243 537.995 473.402 537.198 473.402H532.892C532.453 473.402 532.074 473.243 531.755 472.924C531.436 472.605 531.277 472.226 531.277 471.788C531.277 471.628 531.297 471.489 531.336 471.369L545.99 433.579C546.229 432.902 546.508 432.404 546.827 432.085C547.146 431.726 547.625 431.546 548.263 431.546H554.842ZM558.131 457.796L551.552 440.755L544.973 457.796H558.131Z" fill="white"/>
<path d="M632.455 431.546C632.894 431.546 633.273 431.706 633.592 432.025C633.911 432.344 634.07 432.722 634.07 433.161V437.406C634.07 437.845 633.911 438.223 633.592 438.542C633.273 438.861 632.894 439.021 632.455 439.021H621.69V471.788C621.69 472.226 621.53 472.605 621.211 472.924C620.892 473.243 620.514 473.402 620.075 473.402H615.23C614.792 473.402 614.413 473.243 614.094 472.924C613.775 472.605 613.615 472.226 613.615 471.788V439.021H602.85C602.411 439.021 602.032 438.861 601.713 438.542C601.394 438.223 601.235 437.845 601.235 437.406V433.161C601.235 432.722 601.394 432.344 601.713 432.025C602.032 431.706 602.411 431.546 602.85 431.546H632.455Z" fill="white"/>
<path d="M648.531 473.402C648.092 473.402 647.713 473.243 647.394 472.924C647.075 472.605 646.916 472.226 646.916 471.788V433.161C646.916 432.722 647.075 432.344 647.394 432.025C647.713 431.706 648.092 431.546 648.531 431.546H666.174C668.726 431.546 670.86 431.945 672.574 432.742C674.289 433.5 675.664 434.476 676.701 435.672C677.738 436.828 678.475 438.104 678.914 439.499C679.392 440.854 679.632 442.13 679.632 443.326C679.632 444.522 679.472 445.598 679.153 446.555C678.834 447.472 678.435 448.269 677.957 448.946C677.518 449.584 677.06 450.122 676.581 450.561C676.143 450.999 675.784 451.298 675.505 451.458C676.741 452.295 677.877 453.491 678.914 455.045C679.951 456.56 680.469 458.494 680.469 460.845C680.469 462.36 680.19 463.875 679.632 465.39C679.073 466.865 678.256 468.2 677.179 469.396C676.103 470.592 674.747 471.568 673.112 472.326C671.517 473.043 669.663 473.402 667.55 473.402H648.531ZM671.557 443.625C671.557 442.11 671.079 440.974 670.122 440.217C669.165 439.419 667.65 439.021 665.576 439.021H654.99V448.229H665.576C667.65 448.229 669.165 447.85 670.122 447.093C671.079 446.296 671.557 445.14 671.557 443.625ZM654.99 465.928H666.055C668.248 465.928 669.843 465.469 670.84 464.553C671.876 463.596 672.395 462.36 672.395 460.845C672.395 459.331 671.856 458.095 670.78 457.138C669.743 456.181 668.168 455.703 666.055 455.703H654.99V465.928Z" fill="white"/>
<path d="M693.361 447.153C693.48 444.92 693.899 442.828 694.617 440.874C695.374 438.881 696.471 437.167 697.906 435.732C699.342 434.257 701.136 433.101 703.289 432.264C705.442 431.387 707.994 430.949 710.945 430.949C713.855 430.949 716.387 431.367 718.54 432.204C720.693 433.041 722.488 434.197 723.923 435.672C725.359 437.147 726.455 438.861 727.213 440.814C727.97 442.768 728.409 444.88 728.529 447.153C728.568 447.91 728.588 448.747 728.588 449.664C728.628 450.581 728.648 451.537 728.648 452.534C728.648 453.491 728.628 454.428 728.588 455.344C728.588 456.261 728.568 457.098 728.529 457.856C728.409 460.088 727.97 462.201 727.213 464.194C726.495 466.147 725.418 467.861 723.983 469.336C722.548 470.771 720.733 471.907 718.54 472.744C716.387 473.581 713.855 474 710.945 474C707.994 474 705.442 473.581 703.289 472.744C701.136 471.907 699.342 470.771 697.906 469.336C696.471 467.861 695.374 466.147 694.617 464.194C693.899 462.201 693.48 460.088 693.361 457.856C693.321 457.098 693.281 456.261 693.241 455.344C693.241 454.428 693.241 453.491 693.241 452.534C693.241 451.537 693.241 450.581 693.241 449.664C693.281 448.747 693.321 447.91 693.361 447.153ZM720.454 447.452C720.295 444.581 719.358 442.369 717.643 440.814C715.969 439.22 713.736 438.423 710.945 438.423C708.153 438.423 705.901 439.22 704.186 440.814C702.511 442.369 701.594 444.581 701.435 447.452C701.355 448.966 701.315 450.661 701.315 452.534C701.315 454.368 701.355 456.042 701.435 457.557C701.594 460.427 702.511 462.639 704.186 464.194C705.901 465.748 708.153 466.526 710.945 466.526C713.736 466.526 715.969 465.748 717.643 464.194C719.358 462.639 720.295 460.427 720.454 457.557C720.534 456.042 720.574 454.368 720.574 452.534C720.574 450.661 720.534 448.966 720.454 447.452Z" fill="white"/>
<path d="M759.766 428.856C758.092 428.856 756.676 428.617 755.52 428.138C754.364 427.62 753.446 426.982 752.769 426.225C752.091 425.428 751.592 424.551 751.273 423.594C750.994 422.637 750.855 421.681 750.855 420.724C750.855 420.405 750.954 420.146 751.154 419.946C751.353 419.707 751.632 419.588 751.991 419.588H755.4C755.759 419.588 756.038 419.707 756.238 419.946C756.437 420.146 756.537 420.405 756.537 420.724C756.537 421.601 756.796 422.318 757.314 422.876C757.872 423.434 758.69 423.713 759.766 423.713C760.843 423.713 761.64 423.434 762.159 422.876C762.717 422.318 762.996 421.601 762.996 420.724C762.996 420.405 763.096 420.146 763.295 419.946C763.494 419.707 763.774 419.588 764.132 419.588H767.542C767.9 419.588 768.179 419.707 768.379 419.946C768.578 420.146 768.678 420.405 768.678 420.724C768.678 421.681 768.518 422.637 768.199 423.594C767.92 424.551 767.442 425.428 766.764 426.225C766.086 426.982 765.169 427.62 764.013 428.138C762.856 428.617 761.441 428.856 759.766 428.856ZM749.12 473.402C749.798 473.402 750.316 473.223 750.675 472.864C751.034 472.505 751.293 472.226 751.453 472.027L768.199 447.153V471.788C768.199 472.226 768.359 472.605 768.678 472.924C768.997 473.243 769.376 473.402 769.814 473.402H774.659C775.097 473.402 775.476 473.243 775.795 472.924C776.114 472.605 776.274 472.226 776.274 471.788V433.161C776.274 432.722 776.114 432.344 775.795 432.025C775.476 431.706 775.097 431.546 774.659 431.546H770.472C769.794 431.546 769.276 431.726 768.917 432.085C768.558 432.443 768.299 432.722 768.14 432.922L751.393 457.796V433.161C751.393 432.722 751.234 432.344 750.915 432.025C750.596 431.706 750.217 431.546 749.778 431.546H744.934C744.495 431.546 744.116 431.706 743.797 432.025C743.478 432.344 743.319 432.722 743.319 433.161V471.788C743.319 472.226 743.478 472.605 743.797 472.924C744.116 473.243 744.495 473.402 744.934 473.402H749.12Z" fill="white"/>
<path d="M814.586 473.402C814.147 473.402 813.768 473.243 813.449 472.924C813.13 472.605 812.971 472.226 812.971 471.788V433.161C812.971 432.722 813.13 432.344 813.449 432.025C813.768 431.706 814.147 431.546 814.586 431.546H832.23C834.781 431.546 836.915 431.945 838.629 432.742C840.344 433.5 841.719 434.476 842.756 435.672C843.793 436.828 844.53 438.104 844.969 439.499C845.447 440.854 845.687 442.13 845.687 443.326C845.687 444.522 845.527 445.598 845.208 446.555C844.889 447.472 844.491 448.269 844.012 448.946C843.573 449.584 843.115 450.122 842.636 450.561C842.198 450.999 841.839 451.298 841.56 451.458C842.796 452.295 843.932 453.491 844.969 455.045C846.006 456.56 846.524 458.494 846.524 460.845C846.524 462.36 846.245 463.875 845.687 465.39C845.129 466.865 844.311 468.2 843.235 469.396C842.158 470.592 840.802 471.568 839.167 472.326C837.573 473.043 835.718 473.402 833.605 473.402H814.586ZM837.612 443.625C837.612 442.11 837.134 440.974 836.177 440.217C835.22 439.419 833.705 439.021 831.632 439.021H821.045V448.229H831.632C833.705 448.229 835.22 447.85 836.177 447.093C837.134 446.296 837.612 445.14 837.612 443.625ZM821.045 465.928H832.11C834.303 465.928 835.898 465.469 836.895 464.553C837.931 463.596 838.45 462.36 838.45 460.845C838.45 459.331 837.912 458.095 836.835 457.138C835.798 456.181 834.223 455.703 832.11 455.703H821.045V465.928Z" fill="white"/>
<path d="M892.61 470.891C892.809 471.09 892.929 471.269 892.969 471.429C893.009 471.588 893.029 471.708 893.029 471.788C893.029 472.226 892.869 472.605 892.55 472.924C892.231 473.243 891.852 473.402 891.414 473.402H885.732C884.934 473.402 884.296 473.203 883.818 472.804C883.34 472.366 883.06 472.107 882.981 472.027L868.925 456.181V471.788C868.925 472.226 868.766 472.605 868.447 472.924C868.128 473.243 867.749 473.402 867.311 473.402H862.466C862.027 473.402 861.649 473.243 861.33 472.924C861.011 472.605 860.851 472.226 860.851 471.788V433.161C860.851 432.722 861.011 432.344 861.33 432.025C861.649 431.706 862.027 431.546 862.466 431.546H867.311C867.749 431.546 868.128 431.706 868.447 432.025C868.766 432.344 868.925 432.722 868.925 433.161V447.212L881.964 432.862C882.323 432.463 882.702 432.144 883.1 431.905C883.499 431.666 884.017 431.546 884.655 431.546H890.158C890.596 431.546 890.975 431.706 891.294 432.025C891.613 432.344 891.773 432.722 891.773 433.161C891.773 433.48 891.653 433.779 891.414 434.058L875.325 451.577L892.61 470.891Z" fill="white"/>
<path d="M901.936 433.699C901.856 433.54 901.816 433.36 901.816 433.161C901.816 432.802 901.976 432.443 902.295 432.085C902.614 431.726 902.993 431.546 903.431 431.546H907.917C908.715 431.546 909.273 431.706 909.592 432.025C909.951 432.304 910.23 432.643 910.429 433.041L920.178 451.518L929.927 433.041C930.126 432.643 930.385 432.304 930.704 432.025C931.063 431.706 931.641 431.546 932.439 431.546H936.925C937.363 431.546 937.742 431.706 938.061 432.025C938.38 432.344 938.539 432.722 938.539 433.161C938.539 433.36 938.5 433.54 938.42 433.699L923.826 461.204C922.949 462.839 922.092 464.393 921.255 465.868C920.457 467.343 919.56 468.638 918.563 469.755C917.606 470.871 916.47 471.768 915.154 472.445C913.878 473.083 912.323 473.402 910.489 473.402H906.003C905.565 473.402 905.186 473.243 904.867 472.924C904.548 472.605 904.388 472.226 904.388 471.788V467.542C904.388 467.104 904.548 466.725 904.867 466.406C905.186 466.087 905.565 465.928 906.003 465.928H909.412C910.688 465.928 911.785 465.43 912.702 464.433C913.619 463.397 914.656 461.862 915.812 459.829L901.936 433.699Z" fill="white"/>
<path d="M974.912 460.128C974.992 459.61 975.191 459.231 975.51 458.992C975.869 458.713 976.248 458.573 976.646 458.573H981.491C981.93 458.573 982.308 458.733 982.627 459.052C982.986 459.331 983.146 459.709 983.106 460.188C982.986 461.822 982.568 463.456 981.85 465.091C981.172 466.725 980.115 468.2 978.68 469.515C977.245 470.831 975.43 471.907 973.237 472.744C971.044 473.581 968.393 474 965.283 474C962.531 474 960.099 473.601 957.986 472.804C955.873 471.967 954.078 470.831 952.603 469.396C951.128 467.921 949.971 466.167 949.134 464.134C948.337 462.101 947.858 459.889 947.699 457.497C947.619 455.982 947.579 454.308 947.579 452.474C947.579 450.641 947.619 448.966 947.699 447.452C947.858 445.06 948.337 442.847 949.134 440.814C949.971 438.782 951.128 437.047 952.603 435.612C954.078 434.138 955.873 433.001 957.986 432.204C960.099 431.367 962.531 430.949 965.283 430.949C968.393 430.949 971.044 431.367 973.237 432.204C975.43 433.041 977.245 434.118 978.68 435.433C980.115 436.749 981.172 438.243 981.85 439.918C982.568 441.552 982.986 443.166 983.106 444.761C983.146 445.239 982.986 445.638 982.627 445.957C982.308 446.236 981.93 446.375 981.491 446.375H976.646C976.248 446.375 975.869 446.256 975.51 446.017C975.151 445.738 974.932 445.339 974.852 444.821C974.733 444.023 974.453 443.246 974.015 442.489C973.576 441.731 972.978 441.054 972.221 440.456C971.463 439.858 970.506 439.379 969.35 439.021C968.193 438.622 966.838 438.423 965.283 438.423C963.728 438.423 962.372 438.662 961.216 439.14C960.059 439.619 959.082 440.256 958.285 441.054C957.527 441.851 956.929 442.808 956.491 443.924C956.092 445.04 955.853 446.216 955.773 447.452C955.693 448.966 955.653 450.641 955.653 452.474C955.653 454.308 955.693 455.982 955.773 457.497C955.853 458.773 956.092 459.968 956.491 461.085C956.929 462.161 957.527 463.098 958.285 463.895C959.082 464.692 960.059 465.33 961.216 465.808C962.372 466.287 963.728 466.526 965.283 466.526C966.838 466.526 968.193 466.346 969.35 465.988C970.506 465.589 971.463 465.091 972.221 464.493C973.018 463.895 973.636 463.217 974.075 462.46C974.513 461.702 974.792 460.925 974.912 460.128Z" fill="white"/>
<path d="M719.835 349.252C719.251 366.178 709.91 375.516 699.986 375.516C686.558 375.516 677.801 364.427 662.038 335.244C655.033 343.999 648.611 352.17 643.357 358.59C635.183 368.513 627.594 374.933 618.253 374.933C608.328 374.933 604.825 367.345 604.825 357.423C604.825 335.244 610.663 265.206 605.993 235.44C610.663 232.521 617.669 230.771 622.923 230.771C639.854 230.771 645.108 242.444 645.108 262.288C645.108 275.712 643.357 301.393 641.605 313.649C667.876 275.712 683.639 248.28 689.477 231.938C707.575 229.02 716.916 237.774 716.916 251.198C716.916 265.206 708.159 278.63 684.807 306.062C699.402 331.742 709.91 345.75 719.835 349.252Z" fill="white"/>
<path d="M477.047 304.31C477.047 261.12 498.647 231.354 535.427 231.354C572.207 231.354 591.472 261.12 591.472 302.559C591.472 345.75 571.039 376.683 533.092 376.683C499.815 376.683 477.047 351.003 477.047 304.31ZM512.659 304.894C512.659 329.991 519.664 343.999 534.26 343.999C548.855 343.999 555.86 328.824 555.86 301.392C555.86 280.964 551.19 264.038 535.427 264.038C520.248 264.038 512.659 279.213 512.659 304.894Z" fill="white"/>
<path d="M847.18 349.253C846.596 366.179 837.255 375.517 827.33 375.517C813.903 375.517 805.729 364.428 791.718 335.245C784.712 344 778.291 351.588 773.62 358.008C765.447 367.93 757.857 374.35 748.516 374.35C738.592 374.35 735.089 366.763 735.089 356.84C735.089 334.662 740.927 264.623 736.257 234.857C740.927 231.939 747.933 230.188 753.187 230.188C770.117 230.188 775.372 241.861 775.372 261.705C775.372 275.129 773.62 300.81 771.869 313.066C798.14 275.129 813.903 247.697 819.741 231.355C837.839 228.437 847.18 237.192 847.18 250.616C847.18 264.623 837.839 278.047 815.07 306.063C827.914 331.16 837.255 346.335 847.18 349.253Z" fill="white"/>
<path d="M970.945 336.411C974.448 353.337 979.702 367.345 981.454 370.847C977.367 374.349 970.945 376.683 962.772 376.683C944.09 376.683 938.836 366.761 934.749 338.746C923.657 339.33 912.565 339.913 902.64 340.497C897.386 368.512 891.548 376.1 875.785 376.1C868.195 376.1 861.773 373.765 858.271 368.512C861.19 363.259 864.109 352.17 869.363 327.657C874.033 304.31 881.623 272.793 888.629 256.451C895.05 241.86 903.808 231.354 923.073 231.354C953.431 231.354 959.269 255.867 966.275 307.229C973.864 306.061 979.118 305.478 982.621 304.31C986.124 320.653 983.205 332.326 970.945 336.411ZM908.478 311.314C916.651 310.731 924.241 310.147 931.83 310.147C928.911 281.548 927.744 263.455 923.073 259.369C918.987 262.287 913.732 281.548 908.478 311.314Z" fill="white"/>
<path d="M248.073 378.903C268.483 378.579 278.202 361.737 277.23 327.73C277.23 325.139 276.906 308.297 276.258 276.88C275.934 263.925 277.23 254.208 279.822 248.055C282.089 252.265 285.005 260.362 288.893 272.022C292.456 284.005 296.02 293.722 299.26 301.495C302.175 309.592 307.359 316.718 314.162 323.519C320.966 330.321 328.417 333.56 337.164 333.236C345.587 332.912 353.686 326.758 361.785 314.45C369.885 302.143 376.364 288.54 381.547 273.965C386.731 259.39 392.238 245.787 398.394 233.48C404.225 221.172 409.409 215.019 413.62 215.019C414.592 221.172 413.62 240.281 410.057 272.346C406.493 304.41 404.873 328.701 405.521 344.572C406.169 358.498 412.972 367.891 426.255 372.749C439.538 377.608 451.2 375.664 461.891 366.919C460.272 353.964 458.976 337.77 458.652 318.337C458.328 308.297 458.976 293.074 459.948 272.346C460.92 251.617 461.243 236.719 460.92 227.326C459.624 184.574 448.285 160.606 412.324 161.902C398.394 162.226 388.027 168.056 378.956 182.306C374.096 189.756 370.533 196.233 367.617 202.387C364.701 208.541 360.814 217.286 355.954 229.269C351.094 241.253 346.883 250.969 343.643 257.771C342.671 255.504 341.051 250.969 338.784 243.52C333.924 228.945 331.332 221.172 324.853 206.274C318.374 191.375 312.218 182.63 303.471 172.59C294.4 162.55 283.385 157.691 271.398 158.015C257.468 158.015 245.805 163.845 236.734 175.829C236.41 181.335 235.114 194.614 233.17 215.99C231.226 237.69 229.607 255.828 227.987 270.402C226.367 285.301 224.747 301.819 222.479 319.633C220.212 337.77 217.944 351.697 216 361.09C219.564 373.721 230.255 379.551 248.073 378.903Z" fill="white"/>
</svg>
